<?xml version="1.0" encoding="UTF-8" standalone="no"?>
<svg
   id="Layer_1"
   viewBox="0 0 1069.35 466.42"
   version="1.1"
   sodipodi:docname="logos [Converted].svg"
   inkscape:version="1.2.2 (732a01da63, 2022-12-09)"
   xmlns:inkscape="http://www.inkscape.org/namespaces/inkscape"
   xmlns:sodipodi="http://sodipodi.sourceforge.net/DTD/sodipodi-0.dtd"
   xmlns="http://www.w3.org/2000/svg"
   xmlns:svg="http://www.w3.org/2000/svg">
  <sodipodi:namedview
     id="namedview93265"
     pagecolor="#ffffff"
     bordercolor="#999999"
     borderopacity="1"
     inkscape:showpageshadow="0"
     inkscape:pageopacity="0"
     inkscape:pagecheckerboard="0"
     inkscape:deskcolor="#d1d1d1"
     showgrid="false"
     inkscape:zoom="0.71556621"
     inkscape:cx="343.08495"
     inkscape:cy="165.60312"
     inkscape:window-width="1920"
     inkscape:window-height="1111"
     inkscape:window-x="2391"
     inkscape:window-y="-9"
     inkscape:window-maximized="1"
     inkscape:current-layer="g93262" />
  <defs
     id="defs93198">
    <style
       id="style93196">
      .cls-1 {
        fill: #f58220;
      }

      .cls-2 {
        stroke-width: 44.85px;
      }

      .cls-2, .cls-3 {
        fill: none;
        stroke: #f58220;
        stroke-linecap: round;
        stroke-linejoin: round;
      }

      .cls-3 {
        stroke-width: 24.65px;
      }

      .cls-4 {
        fill: #fdca63;
      }

      .cls-5 {
        fill: #fffcd5;
      }
    </style>
  </defs>
  <path
     class="cls-1"
     d="M924.42,466.42V150.62H121.92v315.8h802.5Z"
     id="path93200" />
  <g
     id="g93216">
    <path
       class="cls-2"
       d="M1027.22,279.92c-5.9-5.5-13.9-11-23.8-16.6-10.7-6.1-17.3-10.3-19.5-12.6s-3.2-5.1-3.2-8.6c0-2.6.6-4.7,2-6,1.5-1.5,3.6-2.2,6.2-2.1,5.8-.1,11.8,2.5,17.8,7.6,5.9,5.2,12.4,13.3,19.6,24.3l18.1-72.1c-19.5-10.8-40.1-16.2-61.7-16.2-48.7,0-73.1,25.3-73,75.9-.1,14,2.6,25.9,8,35.6,5.3,9.6,13.5,17.7,24.3,24.3l16.1,10.1c3.4,2.1,5.8,4.2,7,6.4,1.3,1.9,1.9,4.4,1.9,7.3-.1,2.8-.9,5-2.4,6.7s-3.5,2.5-5.9,2.6c-5.2-.1-11-3.1-17.3-9.1-6.5-5.8-13.2-14.3-20-25.5l-17.7,76.4c14.3,7.7,29.2,12.8,44.8,15.4,8.1,1.3,16.3,2,24.6,2s15.4-.7,22.1-2c34.4-6.9,51.7-31.4,51.7-73.5,0-11.4-1.8-21.3-5.4-29.6-3.7-8.3-8.5-15.2-14.3-20.7"
       id="path93202" />
    <polyline
       class="cls-2"
       points="522.33 120.22 522.33 341.32 592.92 341.32 592.92 275.92 619.53 342.82 673.72 342.82 673.72 120.22 603.03 120.22 603.03 192.32 573.33 120.22 522.33 120.22"
       id="polyline93204" />
    <polyline
       class="cls-2"
       points="744.13 81.82 673.72 81.82 729.53 206.72 729.53 302.82 800.22 302.82 800.22 206.52 855.83 81.82 785.63 81.82 764.83 130.52 744.13 81.82"
       id="polyline93206" />
    <path
       class="cls-2"
       d="M125.33,145.62c6,5.2,12.5,13.3,19.7,24.2l18.2-72.2c-19.5-10.7-40.1-16-61.8-16-10.3,0-19.4,1.1-27.5,3.4-30.3,8.3-45.5,32.4-45.5,72.4,0,14.1,2.7,26,8,35.7,5.4,9.6,13.5,17.7,24.4,24.3l16,10c3.5,2.1,5.8,4.3,7.1,6.4,1.2,2,1.8,4.4,1.8,7.3-.1,2.8-.8,5.1-2.4,6.8-1.5,1.6-3.4,2.5-5.8,2.5-1.2,0-2.4-.2-3.6-.5-4.3-1-8.9-3.9-13.9-8.5-6.4-5.9-13.1-14.4-19.9-25.5l-17.7,76.3c16.3,8.7,33.5,14.2,51.5,16.4,5.9.7,11.9,1,18,1.1,49.1,0,73.6-25.2,73.6-75.5,0-11.4-1.8-21.3-5.3-29.7-3.7-8.3-8.5-15.2-14.2-20.6-6-5.5-13.9-11-23.9-16.6-10.7-6.2-17.2-10.4-19.5-12.7-2.1-2.3-3.2-5.1-3.2-8.6,0-2.7.7-4.7,2-6,1.6-1.4,3.6-2.2,6.2-2.1,5.9,0,11.8,2.6,17.7,7.7"
       id="path93208" />
    <path
       class="cls-2"
       d="M183.72,152.82c0,27.5,1.1,48.2,3.4,62,2.1,13.8,6.4,26.7,12.6,38.8s14.8,21.8,25.7,29c11,7.3,22.5,11,34.4,11,9.2,0,18.2-2.4,27-7.2,8.8-4.7,16.7-11.3,23.5-19.8,6.8-8.4,12.1-18.5,16.1-30.1,3.9-11.6,6.4-22.8,7.5-33.7.9-10.5,1.4-27.4,1.4-50.5v-83.1h-70.8v.1h4v96.3c.1,13.7-.7,22.5-2.2,26.1-1.6,3.7-4.2,5.5-7.7,5.5-2.4.1-4.3-1.4-5.7-4.5-1.5-3-2.3-9-2.3-17.8v-105.6h3.7v-.1h-70.6v83.6"
       id="path93210" />
    <polyline
       class="cls-2"
       points="359.83 81.42 341.42 301.72 411.72 307.72 417.33 242.52 438.03 311.42 492.03 315.92 510.63 94.22 440.22 88.32 434.42 160.02 410.72 85.82 359.83 81.42"
       id="polyline93212" />
    <path
       class="cls-2"
       d="M868.42,126.82c0,18.9,7.9,28.3,23.7,28.3-2.3,6.4-7.9,12.3-16.8,17.7v23.4c34.2-9.5,51.2-31,51.2-64.5-.1-22.5-9.7-33.8-29-33.7-19.4,0-29.1,9.6-29.1,28.8"
       id="path93214" />
  </g>
  <g
     id="g93262">
    <path
       class="cls-4"
       d="M897.53,98.02c-19.4,0-29.1,9.6-29.1,28.8s7.9,28.3,23.7,28.3c-2.3,6.4-7.9,12.3-16.8,17.7v23.4c34.2-9.5,51.2-31,51.2-64.5-.1-22.5-9.7-33.8-29-33.7Z"
       id="path93218"
       style="fill:#fdd24f;fill-opacity:1" />
    <path
       class="cls-4"
       d="M1041.53,300.62c-3.7-8.3-8.5-15.2-14.3-20.7-5.9-5.5-13.9-11-23.8-16.6-10.7-6.1-17.3-10.3-19.5-12.6s-3.2-5.1-3.2-8.6c0-2.6.6-4.7,2-6,1.5-1.5,3.6-2.2,6.2-2.1,5.8-.1,11.8,2.5,17.8,7.6,5.9,5.2,12.4,13.3,19.6,24.3l18.1-72.1c-19.5-10.8-40.1-16.2-61.7-16.2-48.7,0-73.1,25.3-73,75.9-.1,14,2.6,25.9,8,35.6,5.3,9.6,13.5,17.7,24.3,24.3l16.1,10.1c3.4,2.1,5.8,4.2,7,6.4,1.3,1.9,1.9,4.4,1.9,7.3-.1,2.8-.9,5-2.4,6.7s-3.5,2.5-5.9,2.6c-5.2-.1-11-3.1-17.3-9.1-6.5-5.8-13.2-14.3-20-25.5l-17.7,76.4c14.3,7.7,29.2,12.8,44.8,15.4,8.1,1.3,16.3,2,24.6,2s15.4-.7,22.1-2c34.4-6.9,51.7-31.4,51.7-73.5,0-11.4-1.8-21.3-5.4-29.6Z"
       id="path93220"
       style="fill:#fdd24f;fill-opacity:1" />
    <path
       class="cls-4"
       d="M573.33,120.22h-51v221.1h70.6v-65.4l26.6,66.9h54.2V120.22h-70.7v72.1l-29.7-72.1Z"
       id="path93222"
       style="fill:#fdd24f;fill-opacity:1" />
    <path
       class="cls-4"
       d="M764.83,130.52l-20.7-48.7h-70.4l55.8,124.9v96.1h70.7v-96.3l55.6-124.7h-70.2l-20.8,48.7Z"
       id="path93224"
       style="fill:#fdd24f;fill-opacity:1" />
    <path
       class="cls-4"
       d="M107.63,137.92c5.9,0,11.8,2.6,17.7,7.7,6,5.2,12.5,13.3,19.7,24.2l18.2-72.2c-19.5-10.7-40.1-16-61.8-16-10.3,0-19.4,1.1-27.5,3.4-30.3,8.3-45.5,32.4-45.5,72.4,0,14.1,2.7,26,8,35.7,5.4,9.6,13.5,17.7,24.4,24.3l16,10c3.5,2.1,5.8,4.3,7.1,6.4,1.2,2,1.8,4.4,1.8,7.3-.1,2.8-.8,5.1-2.4,6.8-1.5,1.6-3.4,2.5-5.8,2.5-1.2,0-2.4-.2-3.6-.5-4.3-1-8.9-3.9-13.9-8.5-6.4-5.9-13.1-14.4-19.9-25.5l-17.7,76.3c16.3,8.7,33.5,14.2,51.5,16.4,5.9.7,11.9,1,18,1.1,49.1,0,73.6-25.2,73.6-75.5,0-11.4-1.8-21.3-5.3-29.7-3.7-8.3-8.5-15.2-14.2-20.6-6-5.5-13.9-11-23.9-16.6-10.7-6.2-17.2-10.4-19.5-12.7-2.1-2.3-3.2-5.1-3.2-8.6,0-2.7.7-4.7,2-6,1.6-1.4,3.6-2.2,6.2-2.1Z"
       id="path93226"
       style="fill:#fdd24f;fill-opacity:1" />
    <path
       class="cls-4"
       d="M183.72,69.22v83.6c0,27.5,1.1,48.2,3.4,62,2.1,13.8,6.4,26.7,12.6,38.8s14.8,21.8,25.7,29c11,7.3,22.5,11,34.4,11,9.2,0,18.2-2.4,27-7.2,8.8-4.7,16.7-11.3,23.5-19.8,6.8-8.4,12.1-18.5,16.1-30.1,3.9-11.6,6.4-22.8,7.5-33.7.9-10.5,1.4-27.4,1.4-50.5v-83.1h-70.8v.1h4v96.3c.1,13.7-.7,22.5-2.2,26.1-1.6,3.7-4.2,5.5-7.7,5.5-2.4.1-4.3-1.4-5.7-4.5-1.5-3-2.3-9-2.3-17.8v-105.6h3.7v-.1h-70.6Z"
       id="path93228"
       style="fill:#fdd24f;fill-opacity:1" />
    <path
       class="cls-4"
       d="M410.72,85.82l-50.9-4.4-18.4,220.3,70.3,6,5.6-65.2,20.7,68.9,54,4.5,18.6-221.7-70.4-5.9-5.8,71.7-23.7-74.2Z"
       id="path93230"
       style="fill:#fdd24f;fill-opacity:1" />
    <path
       class="cls-5"
       d="M857.53,399.32c-1.7-1.8-3.9-3-6.4-3.8-2.6-.9-6.6-1.3-11.9-1.3s-9.2.5-12.2,1.6-5.4,2.7-7.1,4.9c-1.8,2.1-2.6,4.7-2.6,7.7,0,2.6.8,5.1,2.4,7.2s3.5,3.6,5.9,4.5c2.3.9,6.4,1.8,12.4,2.9,4.1.7,6.5,1.2,7.5,1.7,1.3.7,2,1.7,2,2.9,0,1.1-.5,2.1-1.5,2.8-1.3,1-3.1,1.5-5.4,1.5s-3.8-.5-5.1-1.3c-1.3-.9-2.3-2.3-3-4.4l-17.1,1.7c1,4.2,3.2,7.6,6.7,9.9s9.3,3.6,17.6,3.6c5.8,0,10.4-.8,13.8-2.2,3.4-1.5,5.8-3.5,7.4-6,1.6-2.3,2.4-4.8,2.4-7.5s-.8-5-2.3-7.1-3.6-3.7-6.4-4.9-7-2.1-12.8-2.8c-3.8-.4-6.2-.9-7.4-1.5-1.1-.5-1.7-1.4-1.7-2.4,0-1.1.5-1.9,1.4-2.6s2.3-1,4.2-1,3.6.5,5,1.3c.9.7,1.6,1.7,2.1,3.2l16.4-1.6c-1.2-2.9-2.6-5.3-4.3-7Z"
       id="path93232" />
    <path
       class="cls-5"
       d="M778.13,428.62l6.5-6.3,9.1,18.1h19.5l-17.1-29.4,16.2-15.8h-21.3l-12.9,15.1v-32.2h-17.6v62.3h17.6v-11.8Z"
       id="path93234" />
    <path
       class="cls-5"
       d="M611.13,380.42c-3.4-1.5-8-2.3-13.6-2.3h-28.6v62.3h28.6c3.4,0,7.2-.7,11.4-1.8,3.1-.8,6-2.4,8.7-4.9s4.8-5.6,6.3-9.2c1.5-3.7,2.3-8.9,2.3-15.5,0-4.2-.6-8.3-1.6-12-1-3.8-2.7-7.1-4.9-10-2.3-2.9-5.2-5-8.6-6.6ZM605.42,420.22c-.9,2.2-2.3,3.7-4,4.7-1.8.8-4.6,1.3-8.5,1.3h-4.8v-34h4.8c5,0,8.5,1.2,10.7,3.7,2.1,2.4,3.2,6.9,3.2,13.5,0,5-.4,8.6-1.4,10.8Z"
       id="path93236" />
    <path
       class="cls-5"
       d="M635.22,395.22v45.2h17.4v-15.2c0-7.2.9-12.1,2.6-14.8,1.3-1.8,3-2.8,5.3-2.8,1.2,0,2.8.5,4.8,1.3l5.4-12.3c-3-1.6-5.8-2.4-8.3-2.4s-4.5.6-6.1,1.9c-1.7,1.2-3.4,3.3-4.9,6.5v-7.4h-16.2Z"
       id="path93238" />
    <path
       class="cls-5"
       d="M746.22,398.52c-2.8-2.8-6.5-4.3-11.3-4.3-3.5,0-6.5.7-9,2-2.4,1.3-4.8,3.4-7.3,6.4v-7.4h-16v45.2h17.2v-21.7c0-4.1.7-7,2-8.6,1.3-1.5,3-2.3,5.1-2.3,1.8,0,3.3.6,4.4,1.7,1,1.2,1.5,3.2,1.5,6v24.9h17.4v-28.7c0-6-1.3-10.4-4-13.2Z"
       id="path93240" />
    <path
       class="cls-5"
       d="M691.53,389.92v-11.8h-17.3v11.8h17.3Z"
       id="path93242" />
    <path
       class="cls-5"
       d="M691.53,395.22h-17.3v45.2h17.3v-45.2Z"
       id="path93244" />
    <path
       class="cls-5"
       d="M511.53,410.12c-.6,2-1.4,3.8-2.2,5.5-3.3-2.6-6.5-5.4-9.5-8.4,3.6-2.4,6.2-4.2,7.6-5.5,1.4-1.1,2.6-2.7,3.7-4.7.9-1.9,1.4-4,1.4-6.1,0-3.8-1.6-7-4.9-9.7-3.3-2.8-8.4-4.1-15.4-4.1s-11.9,1.4-15.3,4.2c-3.4,2.9-5.1,6.5-5.1,11,0,2,.5,4.1,1.3,6.1.9,2,2.4,4.4,4.7,7.2-5.4,2.1-9.3,4.8-11.7,8-2.3,3.1-3.5,6.5-3.5,10,0,4.9,2,9.1,6,12.6,4.1,3.4,10.2,5.2,18.5,5.2,5.3,0,10-.7,14.2-1.9,3-.9,6-2.4,9-4.4,1.4.9,3.1,1.9,4.9,3.1s3.5,2.2,5.3,3.2l9.2-10.8c-1.2-.7-2.2-1.2-3-1.7l-6.5-4.5c1.2-2,2.1-3.8,2.8-5.3.6-1.6,1.3-3.5,2-6l-13.5-3ZM491.72,399.22c-3.1-3.3-4.7-5.9-4.7-7.7,0-1.4.6-2.5,1.6-3.6,1.2-1,2.6-1.5,4.3-1.5,1.8,0,3.2.4,4.2,1.4,1.1.9,1.6,2.1,1.6,3.3,0,1.3-.6,2.7-1.9,4.1-1.1,1.4-2.9,2.8-5.1,4ZM482.33,427.92c-1.8-1.7-2.7-3.5-2.7-5.5,0-1.4.4-2.7,1.2-3.8.8-1.2,2.3-2.7,4.7-4.4,5.8,5.5,10.5,9.7,14.1,12.4-3.8,2.4-7.3,3.7-10.3,3.7s-5.3-.8-7-2.4Z"
       id="path93246" />
    <path
       class="cls-5"
       d="M404.42,399.72c-1.7-1.8-3.7-3.2-5.8-4.1-2.2-.9-4.7-1.4-7.4-1.4-5.5,0-10,2-13.5,6-3.7,3.9-5.5,9.7-5.5,17.2,0,6.6,1.6,12.3,4.9,17,3.2,4.6,8,7,14.1,7,3,0,5.8-.8,8.3-2,1.8-1,3.9-2.9,6.2-5.8v6.8h16.1v-62.3h-17.4v21.6ZM391.63,426.12c-1.4-1.7-2.1-4.4-2.1-8,0-4,.7-6.7,2.1-8.5,1.3-1.6,3-2.5,5-2.5,2.3,0,4.1.9,5.7,2.7,1.5,1.7,2.2,4.3,2.2,7.9,0,3.8-.7,6.7-2.2,8.4-1.4,1.8-3.3,2.6-5.5,2.6s-3.8-.8-5.2-2.6Z"
       id="path93248" />
    <path
       class="cls-5"
       d="M263.42,401.02c-4.7,4.4-7,10-7,16.9,0,7.4,2.7,13.4,8.2,18,4.5,3.6,10.3,5.5,17.6,5.5,8.1,0,14.4-2.3,19.1-6.7,4.5-4.4,6.8-10.1,6.8-17,0-6.2-1.8-11.4-5.5-15.6-4.7-5.2-11.4-7.9-20.5-7.9-7.9,0-14.1,2.3-18.7,6.8ZM276.22,426.82c-1.6-1.9-2.5-4.9-2.5-8.9s.9-6.9,2.5-8.9c1.6-1.9,3.7-2.9,6.2-2.9s4.4,1,6,2.9,2.4,4.8,2.4,8.7c0,4.2-.8,7.2-2.4,9.1s-3.6,2.9-6.1,2.9-4.5-1-6.1-2.9Z"
       id="path93250" />
    <path
       class="cls-5"
       d="M249.33,391.52v-13.4h-47.5v62.3h19.3v-25.5h24.1v-12.5h-24.1v-10.9h28.2Z"
       id="path93252" />
    <path
       class="cls-5"
       d="M366.03,417.72c0-6.2-1.8-11.4-5.5-15.6-4.6-5.2-11.4-7.9-20.5-7.9-7.9,0-14.1,2.3-18.7,6.8-4.7,4.4-7,10-7,16.9,0,7.4,2.8,13.4,8.2,18,4.5,3.6,10.4,5.5,17.6,5.5,8.1,0,14.5-2.3,19.1-6.7,4.5-4.4,6.8-10.1,6.8-17ZM331.63,417.92c0-4,.9-6.9,2.5-8.9,1.6-1.9,3.7-2.9,6.2-2.9s4.4,1,6,2.9,2.4,4.8,2.4,8.7c0,4.2-.8,7.2-2.4,9.1s-3.6,2.9-6.1,2.9-4.5-1-6.1-2.9-2.5-4.9-2.5-8.9Z"
       id="path93254" />
    <line
       class="cls-3"
       x1="914.33"
       y1="12.32"
       x2="905.03"
       y2="44.82"
       id="line93256" />
    <line
       class="cls-3"
       x1="1017.53"
       y1="118.32"
       x2="984.72"
       y2="126.32"
       id="line93258" />
    <line
       class="cls-3"
       x1="991.13"
       y1="44.82"
       x2="966.63"
       y2="68.12"
       id="line93260" />
  </g>
</svg>
